<svg xmlns="http://www.w3.org/2000/svg" width="42" height="30" viewBox="0 0 42 30"><g transform="translate(-3 -9)"><path d="M45,35a4,4,0,0,1-4,4H7a4,4,0,0,1-4-4V13A4,4,0,0,1,7,9H41a4,4,0,0,1,4,4Z" fill="#1976d2"/><path d="M22.254,20l-2.113,4.684L18.039,20h-2.7v6.727L12.34,20H10.066L7,26.98H8.816l.668-1.559h3.434L13.6,26.98h3.465V21.8l2.3,5.184h1.563l2.352-5.094V26.98H25V20ZM10.137,23.914l1.023-2.437,1.066,2.438Z" fill="#fff"/><path d="M37.883,23.414,41,20.02H38.781l-1.992,2.164L34.859,20H28v6.98h6.637l2.09-2.309L38.766,27h2.211Zm-4.156,2.1H29.719V24.137h3.836V22.813H29.719V21.5l4.23.012,1.7,1.9Z" fill="#fff"/></g></svg>