<svg enable-background="new 0 0 47.001 47.001" height="47.001" viewBox="0 0 47.001 47.001" width="47.001" xmlns="http://www.w3.org/2000/svg"><path d="m44.845 42.718h-42.709c-1.18 0-2.136.956-2.136 2.137 0 1.179.956 2.135 2.136 2.135h42.708c1.18 0 2.136-.956 2.136-2.135-.001-1.181-.957-2.137-2.135-2.137z"/><path d="m4.805 37.165c-1.18 0-2.136.956-2.136 2.136s.956 2.137 2.136 2.137h37.37c1.18 0 2.136-.957 2.136-2.137s-.956-2.136-2.136-2.136h-.533v-19.22h.533c.591 0 1.067-.478 1.067-1.067s-.478-1.067-1.067-1.067h-37.37c-.59 0-1.067.478-1.067 1.067s.478 1.067 1.067 1.067h.534v19.219h-.534zm32.565-19.22v19.219h-6.406v-19.219zm-10.678 0v19.219h-6.406v-19.219zm-17.083 0h6.406v19.219h-6.406z"/><path d="m2.136 13.891h42.708.021c1.181 0 2.136-.956 2.136-2.136 0-.938-.604-1.733-1.443-2.021l-21.19-9.535c-.557-.25-1.194-.25-1.752 0l-21.356 9.609c-.919.414-1.424 1.412-1.212 2.396.211.984 1.081 1.687 2.088 1.687z"/></svg>