<svg enable-background="new 0 0 548.176 548.176" height="548.176" viewBox="0 0 548.176 548.176" width="548.176" xmlns="http://www.w3.org/2000/svg"><path d="m534.754 68.238c-8.945-8.945-19.698-13.417-32.258-13.417h-456.815c-12.562 0-23.313 4.471-32.264 13.417-8.946 8.947-13.417 19.698-13.417 32.261v347.173c0 12.566 4.471 23.318 13.417 32.264 8.951 8.946 19.702 13.419 32.264 13.419h456.815c12.56 0 23.312-4.473 32.258-13.419 8.945-8.945 13.422-19.697 13.422-32.264v-347.173c0-12.563-4.477-23.314-13.422-32.261zm-23.127 379.441c0 2.478-.903 4.613-2.711 6.427-1.807 1.8-3.949 2.703-6.42 2.703h-456.815c-2.473 0-4.615-.903-6.423-2.71-1.807-1.813-2.712-3.949-2.712-6.427v-173.584h475.082v173.591zm0-283.23h-475.082v-63.954c0-2.474.902-4.611 2.712-6.423 1.809-1.803 3.951-2.708 6.423-2.708h456.815c2.471 0 4.613.901 6.42 2.708 1.808 1.812 2.711 3.949 2.711 6.423v63.954z"/><path d="m73.092 383.719h73.089v36.548h-73.089z"/><path d="m182.728 383.719h109.634v36.548h-109.634z"/></svg>