<svg xmlns="http://www.w3.org/2000/svg" width="42" height="30" viewBox="0 0 42 30"><g transform="translate(-3 -9)"><path d="M45,35a4.013,4.013,0,0,1-4,4H7a4.013,4.013,0,0,1-4-4V13A4.013,4.013,0,0,1,7,9H41a4.013,4.013,0,0,1,4,4Z" fill="#cfd8dc"/><path d="M29,16H19a8,8,0,0,0,0,16H29a8,8,0,0,0,0-16Z" fill="#1565c0"/><path d="M19,18a6,6,0,1,0,6,6A6.017,6.017,0,0,0,19,18Zm-4,6a4.079,4.079,0,0,1,3-3.9v7.7A3.88,3.88,0,0,1,15,24Zm5,3.9V20.2a3.994,3.994,0,0,1,3,3.9A4.053,4.053,0,0,1,20,27.9Z" fill="#fff"/></g></svg>