<svg xmlns="http://www.w3.org/2000/svg" width="42" height="30" viewBox="0 0 42 30"><g transform="translate(-3 -9)"><path d="M45,35a4.013,4.013,0,0,1-4,4H7a4.013,4.013,0,0,1-4-4V13A4.013,4.013,0,0,1,7,9H41a4.013,4.013,0,0,1,4,4Z" fill="#e1e7ea"/><path d="M45,35a4.013,4.013,0,0,1-4,4H16s23.6-3.8,29-15ZM22,24a3,3,0,1,0,3-3A2.947,2.947,0,0,0,22,24Z" fill="#ff6d00"/><path d="M11.2,21h1.1v6H11.2Zm6,3a2.947,2.947,0,0,0,3,3,3.555,3.555,0,0,0,1.4-.3V25.4a1.815,1.815,0,0,1-1.4.6,1.866,1.866,0,0,1-1.9-2,1.922,1.922,0,0,1,1.9-2,2.156,2.156,0,0,1,1.4.6V21.3a3.738,3.738,0,0,0-1.4-.4A3.165,3.165,0,0,0,17.2,24Zm13.4.9L29,21H27.8l2.5,6h.6l2.5-6H32.2ZM33.9,27h3.2V26H35V24.4h2v-1H35V22h2.1V21H33.9Zm7.6-4.2c0-1.1-.7-1.8-2-1.8H37.8v6h1.1V24.6H39L40.6,27H42l-1.8-2.5A1.637,1.637,0,0,0,41.5,22.8Zm-2.3,1h-.3V22h.3c.7,0,1.1.3,1.1.9C40.3,23.4,40,23.8,39.2,23.8ZM7.7,21H6v6H7.6a2.971,2.971,0,0,0,3.1-3A2.782,2.782,0,0,0,7.7,21Zm-.3,5H7.1V22h.4a2.006,2.006,0,1,1-.1,4Zm7.9-2.7c-.7-.3-.9-.4-.9-.7,0-.4.4-.6.8-.6a1.066,1.066,0,0,1,.9.5l.6-.8A2.192,2.192,0,0,0,15,21a1.71,1.71,0,0,0-1.8,1.7c0,.8.4,1.2,1.4,1.6.6.2,1.1.4,1.1.9a.816.816,0,0,1-.9.8,1.3,1.3,0,0,1-1.2-.8l-.7.7a2.112,2.112,0,0,0,2,1.1,1.864,1.864,0,0,0,2-1.9C16.9,24.2,16.5,23.8,15.3,23.3Z"/></g></svg>