<svg height="107" viewBox="4.95116997 2.39025402 95.64872742 95.78394318" width="102" xmlns="http://www.w3.org/2000/svg"><ellipse cx="58.842" cy="61.624" fill="#151027" rx="47.5" ry="47.5" transform="matrix(-.627752 .778413 -.778413 -.627752 137.6172 43.058374)"/><path d="m60.554 46.489c6.309-4.96 19.286-22.684-.992-19.562-8.832 1.285-21.81 9.459-24.424 18.827-1.362-2.503-2.866-4.926-4.506-7.256-2.434-3.214-5.227-.735-2.524 2.571 7.661 9.459 12.978 20.847 12.978 32.328.631-5.694-.36-12.674-2.703-19.47 1.171.367 2.434.551 3.605.551 4.146 6.429 10.455 11.939 17.574 14.51 6.49 2.48 15.142 1.011 11.626-8.908-1.892-5.418-6.308-10.194-10.634-13.592zm.9-17.266c11.266-1.194-.811 12.123-4.776 14.602-3.695-2.296-8.291-4.316-12.798-3.765 3.244-3.949 11.085-10.103 17.575-10.838zm-17.664 13.776c3.065-.276 6.399 1.377 8.922 3.03-2.48 1.214-5.175 1.931-7.931 2.113-4.146 0-4.957-4.777-.991-5.143zm15.592 20.754c-5.317-1.469-10.274-5.51-13.88-9.643 2.975-.55 5.859-1.653 8.563-3.214.991-.459 1.982-1.102 2.883-1.745 3.155 2.755 6.4 6.429 7.662 10.562 1.261 4.5-2.164 4.867-5.228 4.04z" fill="#eaa844" stroke-dasharray="4 8" stroke-linecap="round" stroke-linejoin="round"/></svg>