<svg enable-background="new 0 0 291.765 291.765" viewBox="0 0 291.765 291.765" xmlns="http://www.w3.org/2000/svg"><path d="m18.235 41.03h255.294c10.066 0 18.235 8.16 18.235 18.235v173.226c0 10.066-8.169 18.244-18.235 18.244h-255.294c-10.066.001-18.235-8.168-18.235-18.243v-173.226c0-10.075 8.16-18.236 18.235-18.236z" fill="#e4e7e7"/><path d="m118.529 177.795v18.235h145.882v-18.235zm0 45.588h91.176v-18.235h-91.176zm-36.47-45.588h-36.471c-10.066 0-18.235 8.169-18.235 18.235v9.118c0 10.066 8.169 18.235 18.235 18.235h36.471c10.066 0 18.235-8.169 18.235-18.235v-9.118c0-10.065-8.169-18.235-18.235-18.235z" fill="#cdcfcf"/><path d="m27.353 123.089h237.059v27.353h-237.059z" fill="#fff"/><path d="m0 68.383h291.765v27.353h-291.765z" fill="#324d5b"/></svg>