<svg xmlns="http://www.w3.org/2000/svg" width="512" height="353.098" viewBox="0 0 512 353.098"><g transform="translate(0 -79.451)"><path d="M512,402.282a30.266,30.266,0,0,1-30.265,30.267H30.265A30.267,30.267,0,0,1,0,402.282V109.717A30.265,30.265,0,0,1,30.265,79.451H481.734A30.265,30.265,0,0,1,512,109.717Z" fill="#e7e8e3"/><path d="M51.785,432.547c-16.715,0-16.716-353.1,0-353.1H30.264A30.266,30.266,0,0,0,0,109.717V402.28a30.266,30.266,0,0,0,30.265,30.267Z" fill="#e7e8e3" opacity="0.15"/><path d="M196.2,143.37H142.543c-26.067,0-43.58,17.514-43.58,43.58V264.9a.639.639,0,0,0,.011.115c2.057,9.774,12.3,17.143,23.83,17.143,12.727,0,22.322-8.942,22.322-20.8V222.431h32.8v38.421c0,21.91-28.205,32.252-47.261,32.342-11.272-.047-22.318-3.509-30.307-9.5a.559.559,0,0,0-.582-.052l0,0a.555.555,0,0,0-.808.5v86.049a.557.557,0,0,0,.557.557H154.7c19.452,0,42.061-18.373,42.061-42.061V143.927a.558.558,0,0,0-.559-.557Z" fill="#0f549d"/><path d="M304.016,143.37H250.868c-26.474,0-43.58,16.908-43.58,43.077v44.036a.555.555,0,0,0,.912.427c4.639-3.868,12.118-8.478,21.408-8.478h57.148v10.4c-13.876-3.038-26.711-4.422-32.853-4.422a26.4,26.4,0,0,0-26.374,26.372l0,.161,0,.345A26.4,26.4,0,0,0,253.9,281.656a172.074,172.074,0,0,0,32.853-3.916v9.383H229.608a30.26,30.26,0,0,1-21.372-8.445.558.558,0,0,0-.951.394v91.112a.557.557,0,0,0,.557.557h54.663c19.455,0,42.065-18.373,42.065-42.061V143.927a.552.552,0,0,0-.554-.557Z" fill="#b41f36"/><path d="M333.324,280.6a.558.558,0,0,0,.557.557H357.67a12.2,12.2,0,1,0,0-24.4H333.881a.558.558,0,0,0-.557.557Z" fill="#329947"/><path d="M413.352,143.37H360.706c-14.013,0-25.4,4.739-33.017,13.08h0a42.417,42.417,0,0,0-11.069,28.606v36.82a.557.557,0,0,0,.557.557h63.781a16.148,16.148,0,0,1,0,32.3.557.557,0,0,0,0,1.114c9.9,0,17.665,6.871,17.665,15.642,0,8.918-7.6,15.643-17.665,15.643H317.177a.557.557,0,0,0-.557.557v82.5a.557.557,0,0,0,.557.557h54.669c19.453,0,42.063-18.373,42.063-42.061V143.927a.557.557,0,0,0-.557-.557Z" fill="#329947"/><path d="M333.881,252.3H357.67A11.85,11.85,0,0,0,369.364,240.6a12.68,12.68,0,0,0-12.2-12.2H333.881a.558.558,0,0,0-.557.557v22.78A.557.557,0,0,0,333.881,252.3Z" fill="#329947"/></g></svg>