<svg enable-background="new 0 0 512 512" viewBox="0 0 512 512" xmlns="http://www.w3.org/2000/svg"><path d="m512 402.282c0 16.716-13.55 30.267-30.265 30.267h-451.47c-16.715 0-30.265-13.553-30.265-30.267v-292.565c0-16.716 13.55-30.266 30.265-30.266h451.469c16.716 0 30.265 13.551 30.265 30.266z" fill="#e7e8e3"/><path d="m51.785 432.547c-16.715.002-16.716-353.096-.001-353.096h-21.52c-16.714 0-30.264 13.552-30.264 30.266v292.563c0 16.716 13.55 30.267 30.265 30.267z" fill="#e7e8e3" opacity=".15"/><path d="m196.197 143.37h-53.654c-26.067 0-43.58 17.514-43.58 43.58v77.954c0 .038.004.077.011.115 2.057 9.774 12.302 17.143 23.83 17.143 12.727 0 22.322-8.942 22.322-20.802v-38.929h32.8v38.421c0 21.91-28.205 32.252-47.261 32.342-11.272-.047-22.318-3.509-30.307-9.502-.167-.125-.394-.146-.582-.052 0 0-.002.001-.004.002-.157-.079-.344-.081-.502-.002-.187.095-.306.287-.306.498v86.049c0 .307.248.557.557.557h55.174c19.452 0 42.061-18.373 42.061-42.061v-184.756c-.002-.309-.249-.557-.559-.557z" fill="#0f549d"/><path d="m304.016 143.37h-53.148c-26.474 0-43.58 16.908-43.58 43.077v44.036c0 .216.124.412.319.504.196.091.426.061.593-.077 4.639-3.868 12.118-8.478 21.408-8.478h57.148v10.396c-13.876-3.038-26.711-4.422-32.853-4.422-14.543 0-26.374 11.831-26.374 26.372l.004.161-.004.345c0 14.542 11.831 26.372 26.374 26.372 7.45 0 20.42-1.212 32.853-3.916v9.383h-57.148c-8.22 0-16.009-3.079-21.372-8.445-.161-.16-.4-.207-.607-.12-.209.086-.344.289-.344.514v91.112c0 .307.248.557.557.557h54.663c19.455 0 42.065-18.373 42.065-42.061v-184.753c.002-.309-.246-.557-.554-.557z" fill="#b41f36"/><g fill="#329947"><path d="m333.324 280.595c0 .307.25.557.557.557h23.789c6.387 0 12.202-5.816 12.202-12.2 0-6.383-5.816-12.198-12.202-12.198h-23.789c-.306 0-.557.249-.557.557z"/><path d="m413.352 143.37h-52.646c-14.013 0-25.4 4.739-33.017 13.08v-.001s-11.069 10.798-11.069 28.606v1.894 15.914 19.012c0 .307.248.557.557.557h63.781c8.752 0 16.148 7.396 16.148 16.149s-7.396 16.148-16.148 16.148c-.308 0-.557.249-.557.557s.248.557.557.557c9.904 0 17.665 6.871 17.665 15.642 0 8.918-7.595 15.643-17.665 15.643h-63.781c-.308 0-.557.249-.557.557v82.504c0 .307.248.557.557.557h54.669c19.453 0 42.063-18.373 42.063-42.061v-184.758c0-.309-.251-.557-.557-.557z"/><path d="m333.881 252.299h23.789c6.339 0 11.694-5.355 11.694-11.694 0-6.384-5.813-12.199-12.196-12.199h-23.287c-.306 0-.557.249-.557.557v22.78c0 .307.25.556.557.556z"/></g></svg>