<svg xmlns="http://www.w3.org/2000/svg" width="42" height="30" viewBox="0 0 42 30"><g transform="translate(-3 -9)"><path d="M45,35a4,4,0,0,1-4,4H7a4,4,0,0,1-4-4V13A4,4,0,0,1,7,9H41a4,4,0,0,1,4,4Z" fill="#3f51b5"/><path d="M40,24A10,10,0,1,1,30,14,10,10,0,0,1,40,24Z" fill="#ffc107"/><path d="M22.016,30a9.956,9.956,0,0,1-1.176-2h5.324a9.946,9.946,0,0,0,.637-2H20.2a9.9,9.9,0,0,1-.2-2h7a10.184,10.184,0,0,0-.2-2H20.2a9.956,9.956,0,0,1,.641-2h5.324a9.956,9.956,0,0,0-1.176-2H22.016a10.035,10.035,0,0,1,1.48-1.594A10,10,0,1,0,24.984,30Z" fill="#ff3d00"/></g></svg>