<svg height="48" viewBox="0 0 48 48" width="48" xmlns="http://www.w3.org/2000/svg"><path d="m45 35c0 2.210938-1.789062 4-4 4h-34c-2.210937 0-4-1.789062-4-4v-22c0-2.210937 1.789063-4 4-4h34c2.210938 0 4 1.789063 4 4z" fill="#3f51b5"/><path d="m40 24c0 5.523438-4.476562 10-10 10-5.523437 0-10-4.476562-10-10 0-5.523437 4.476563-10 10-10 5.523438 0 10 4.476563 10 10z" fill="#ffc107"/><path d="m22.015625 30c-.464844-.617187-.863281-1.285156-1.175781-2h5.324219c.277343-.636719.496093-1.304687.636718-2h-6.597656c-.132812-.644531-.203125-1.3125-.203125-2h7c0-.6875-.070312-1.355469-.199219-2h-6.601562c.144531-.695312.359375-1.363281.640625-2h5.324219c-.3125-.714844-.710938-1.382812-1.175782-2h-2.972656c.433594-.578125.929688-1.121094 1.480469-1.59375-1.75-1.496094-4.015625-2.40625-6.496094-2.40625-5.523437 0-10 4.476563-10 10 0 5.523438 4.476563 10 10 10 3.269531 0 6.160156-1.574219 7.984375-4z" fill="#ff3d00"/></svg>