<svg enable-background="new 0 0 612 612" viewBox="0 0 612 612" xmlns="http://www.w3.org/2000/svg"><path d="m587.52 122.4h-563.04v24.48h563.04v318.24h24.48v-318.24-24.48z"/><path d="m304.054 344.789c-2.283-1.61-5.777-2.821-10.502-3.648v21.114c9.29-1.2 13.929-4.645 13.929-10.337 0-3.139-1.144-5.508-3.427-7.129z"/><path d="m281.52 218.411c-50.698 0-91.8 49.321-91.8 110.16s41.102 110.16 91.8 110.16 91.8-49.321 91.8-110.16-41.102-110.16-91.8-110.16zm40.612 155.631c-6.701 5.471-16.218 8.874-28.58 10.22v11.567h-17.852v-11.004c-7.338-.226-14.241-.881-20.716-1.965-6.481-1.083-11.848-2.601-16.114-4.547v-22.008c2.919 1.047 5.759 1.958 8.531 2.748s5.618 1.463 8.544 2.02c2.919.563 5.991 1.01 9.204 1.353 3.213.337 6.744.545 10.557.618v-24.59c-4.719-.679-9.394-1.597-14.033-2.754-4.645-1.157-8.819-2.901-12.522-5.226-3.709-2.319-6.726-5.386-9.045-9.204s-3.476-8.758-3.476-14.829c0-4.939.894-9.333 2.693-13.182 1.793-3.862 4.382-7.191 7.748-10 3.372-2.803 7.473-5.073 12.295-6.793 4.835-1.72 10.282-2.919 16.34-3.592v-11.567h17.852v11.23c5.465.3 11.028.912 16.683 1.848 5.649.936 10.839 2.234 15.551 3.88v22.234c-11.53-3.745-22.277-5.838-32.234-6.285v24.927c4.719.747 9.382 1.738 13.978 2.974 4.608 1.23 8.727 3.029 12.356 5.392 3.629 2.356 6.585 5.447 8.862 9.26 2.283 3.819 3.433 8.727 3.433 14.712-.006 9.577-3.359 17.104-10.055 22.563z"/><path d="m261.22 305.327c0 3.146 1.193 5.539 3.592 7.191 2.399 1.646 6.022 2.919 10.887 3.813v-21.555c-5.471.6-9.247 1.812-11.34 3.648-2.099 1.829-3.139 4.137-3.139 6.903z"/><path d="m459.055 171.36h-348.95-22.167-87.938v89.468 18.501 104.346 17.987 87.938h87.938 22.167 348.95 14.517 89.468v-87.938-17.987-104.346-18.501-89.468h-89.468zm79.505 104.413v111.457c-37.65 10.006-67.094 39.945-76.384 77.889h-355.198c-9.786-39.994-41.922-71.212-82.498-79.45v-108.341c41.267-8.378 73.85-40.514 83.018-81.488h354.158c8.709 38.911 38.568 69.744 76.904 79.933z"/><circle cx="124.952" cy="327.928" r="33.66"/><circle cx="443.192" cy="327.928" r="33.66"/></svg>