<svg height="16" viewBox="0 0 57 16" width="57" xmlns="http://www.w3.org/2000/svg">
    <path
        d="M4.4,0.8L1,0.8L1,15h3.5v-8.8c1.2,-1.5 2.9,-2.3 5.2,-2.4v-3.3c-2.2,0 -3.9,0.8 -5.2,2.1L4.5,0.8zM21.7,0.8h3.4L25.1,15h-3.4v-1c-1.2,0.8 -2.6,1.3 -4.3,1.3c-4,0 -7.1,-3.3 -7.1,-7.4c0,-4.1 3.2,-7.4 7.1,-7.4c1.7,0 3.2,0.5 4.3,1.3L21.7,0.8zM17.9,12.3c1.5,0 2.8,-0.5 3.8,-2v-4.8c-1,-1.5 -2.4,-2 -3.8,-2c-2.4,0 -4.2,2.1 -4.2,4.4C13.7,10.3 15.4,12.3 17.9,12.3zM42.6,0.8L36.1,15L33,15l-6.5,-14.2h3.7l4.4,9.8l4.4,-9.8L42.6,0.8zM56.8,7.7c0,0.5 0,0.8 -0.1,1.1h-11c0.3,2 1.7,3.6 4.3,3.6c1.4,0 2.4,-0.4 2.9,-1.3h3.7c-0.8,2.6 -3.4,4.4 -6.7,4.4c-4.5,0 -7.6,-3.3 -7.6,-7.5c0,-4.4 3,-7.6 7.5,-7.6C53.8,0.4 56.7,3.3 56.8,7.7zM49.7,3.3c-2.3,0 -3.6,1.4 -4,3.4h7.5C53,4.6 51.8,3.3 49.7,3.3z"
        fill="#FF000000" />
</svg>
