<svg xmlns="http://www.w3.org/2000/svg" width="42" height="30" viewBox="0 0 42 30"><g transform="translate(-3 -9)"><path d="M45,35a4.013,4.013,0,0,1-4,4H7a4.013,4.013,0,0,1-4-4V13A4.013,4.013,0,0,1,7,9H41a4.013,4.013,0,0,1,4,4Z" fill="#cfd8dc"/><g transform="translate(6.948 29.583) rotate(-90)"><path d="M5.718,11.434a5.691,5.691,0,1,1,5.691-5.691,5.691,5.691,0,0,1-5.691,5.691" fill="#ed342b" fill-rule="evenodd"/><path d="M3.28,5.743C6.166,4.47,8.862,3.537,8.862,3.537V1.585A66.975,66.975,0,0,0,1.075,4.979V6.507A66.965,66.965,0,0,0,8.862,9.9V7.949s-2.7-.933-5.581-2.206" fill="#fefefe" fill-rule="evenodd"/><path d="M6.015,30.253c0-1.1-1.188-1.188-1.188-1.188v2.376s1.188-.085,1.188-1.188m-2.376,2.63V29.065s-1.273.085-1.273,1.782a6.774,6.774,0,0,0,.255,1.7l-1.358.17a6.007,6.007,0,0,1-.34-2.037,2.937,2.937,0,0,1,3.224-3.224A2.809,2.809,0,0,1,7.2,30.338c0,2.545-2.546,2.715-3.564,2.545m2-12.983,1.4.263a4.677,4.677,0,0,0-.525-3.678H.916v1.751H5.469A1.946,1.946,0,0,1,5.644,19.9m.371-7.3c0-1.1-1.188-1.188-1.188-1.188v2.376S6.015,13.7,6.015,12.6m-2.376,2.63V11.413s-1.273.085-1.273,1.782a6.774,6.774,0,0,0,.255,1.7l-1.358.17a6.007,6.007,0,0,1-.34-2.037A2.937,2.937,0,0,1,4.148,9.8,2.809,2.809,0,0,1,7.2,12.685c0,2.546-2.546,2.715-3.564,2.546m-.582,8.943A27.676,27.676,0,0,1,7.2,22.84V21.062a33.291,33.291,0,0,0-6.277,2.4v1.422a33.29,33.29,0,0,0,6.276,2.4V25.507a27.682,27.682,0,0,1-4.143-1.334" fill="#03435f" fill-rule="evenodd"/></g></g></svg>