<svg height="48" viewBox="0 0 48 48" width="48" xmlns="http://www.w3.org/2000/svg"><path d="m45 35c0 2.210938-1.789062 4-4 4h-34c-2.210937 0-4-1.789062-4-4v-22c0-2.210937 1.789063-4 4-4h34c2.210938 0 4 1.789063 4 4z" fill="#1565c0"/><g fill="#fff"><path d="m15.1875 19-2.628906 7.832031s-.664063-3.3125-.730469-3.730468c-1.496094-3.410157-3.703125-3.21875-3.703125-3.21875l2.601563 10.117187v-.003906h3.160156l4.371094-10.996094z"/><path d="m17.6875 30h2.871094l1.738281-11h-2.90625z"/><path d="m38.007813 19h-3.019532l-4.710937 11h2.851562l.589844-1.570312h3.59375l.304688 1.570312h2.613281zm-3.496094 7.328125 1.5625-4.15625.820312 4.15625z"/><path d="m26.367188 22.207031c0-.605468.5-1.058593 1.929687-1.058593.925781 0 1.988281.675781 1.988281.675781l.46875-2.308594s-1.359375-.515625-2.691406-.515625c-3.019531 0-4.578125 1.441406-4.578125 3.269531 0 3.308594 3.980469 2.855469 3.980469 4.550782 0 .292968-.230469.964843-1.890625.964843s-2.757813-.609375-2.757813-.609375l-.496093 2.21875s1.066406.605469 3.117187.605469c2.058594 0 4.917969-1.539062 4.917969-3.753906 0-2.660156-3.988281-2.851563-3.988281-4.039063z"/></g><path d="m12.210938 24.945313-.964844-4.75s-.4375-1.027344-1.574219-1.027344-4.4375 0-4.4375 0 5.660156 1.671875 6.976563 5.777344z" fill="#ffc107"/></svg>