<svg xmlns="http://www.w3.org/2000/svg" width="42" height="30" viewBox="0 0 42 30"><g transform="translate(-3 -9)"><path d="M45,35a4,4,0,0,1-4,4H7a4,4,0,0,1-4-4V13A4,4,0,0,1,7,9H41a4,4,0,0,1,4,4Z" fill="#1565c0"/><path d="M15.188,19l-2.629,7.832s-.664-3.312-.73-3.73c-1.5-3.41-3.7-3.219-3.7-3.219L10.727,30v0h3.16l4.371-11Z" fill="#fff"/><path d="M17.688,30h2.871L22.3,19H19.391Z" fill="#fff"/><path d="M38.008,19h-3.02L30.277,30h2.852l.59-1.57h3.594l.3,1.57H40.23Zm-3.5,7.328,1.563-4.156.82,4.156Z" fill="#fff"/><path d="M26.367,22.207c0-.605.5-1.059,1.93-1.059a4.518,4.518,0,0,1,1.988.676l.469-2.309A8.768,8.768,0,0,0,28.063,19c-3.02,0-4.578,1.441-4.578,3.27,0,3.309,3.98,2.855,3.98,4.551,0,.293-.23.965-1.891.965a6.145,6.145,0,0,1-2.758-.609l-.5,2.219A6.768,6.768,0,0,0,25.438,30c2.059,0,4.918-1.539,4.918-3.754C30.355,23.586,26.367,23.395,26.367,22.207Z" fill="#fff"/><path d="M12.211,24.945l-.965-4.75a1.775,1.775,0,0,0-1.574-1.027H5.234s5.66,1.672,6.977,5.777Z" fill="#ffc107"/></g></svg>